<svg xmlns="http://www.w3.org/2000/svg" xmlns:xlink="http://www.w3.org/1999/xlink" width="500" zoomAndPan="magnify" viewBox="0 0 375 374.999991" height="500" preserveAspectRatio="xMidYMid meet" version="1.0"><defs><clipPath id="id1"><path d="M 37.5 37.5 L 337.5 37.5 L 337.5 337.5 L 37.5 337.5 Z M 37.5 37.5 " clip-rule="nonzero"/></clipPath></defs><path fill="#4c40f7" d="M 113.90625 196.757812 C 114.386719 175.941406 122.722656 156.445312 137.492188 141.675781 C 152.71875 126.449219 172.960938 118.066406 194.492188 118.066406 L 261.066406 118.066406 C 260.066406 137.6875 243.789062 153.347656 223.917969 153.347656 L 194.492188 153.347656 C 128.332031 153.347656 113.90625 196.757812 113.90625 196.757812 " fill-opacity="1" fill-rule="nonzero"/><g clip-path="url(#id1)"><path fill="#4c40f7" d="M 187.5 337.5 C 180.128906 337.5 172.71875 336.957031 165.441406 335.886719 L 165.441406 302.871094 C 172.6875 304.25 180.097656 304.945312 187.5 304.945312 C 252.261719 304.945312 304.945312 252.261719 304.945312 187.5 C 304.945312 122.738281 252.261719 70.054688 187.5 70.054688 C 122.738281 70.054688 70.054688 122.738281 70.054688 187.5 C 70.054688 215.152344 79.832031 241.960938 97.605469 263.078125 L 97.605469 307.585938 C 79.847656 294.265625 65.070312 276.96875 54.734375 257.378906 C 43.460938 236 37.5 211.835938 37.5 187.5 C 37.5 167.25 41.464844 147.605469 49.285156 129.113281 C 56.84375 111.253906 67.65625 95.207031 81.433594 81.433594 C 95.210938 67.660156 111.25 56.839844 129.113281 49.289062 C 147.605469 41.464844 167.25 37.5 187.5 37.5 C 207.75 37.5 227.394531 41.464844 245.886719 49.289062 C 263.75 56.839844 279.792969 67.660156 293.566406 81.433594 C 307.339844 95.207031 318.160156 111.253906 325.710938 129.113281 C 333.535156 147.605469 337.5 167.25 337.5 187.5 C 337.5 207.75 333.535156 227.394531 325.710938 245.886719 C 318.160156 263.75 307.339844 279.792969 293.566406 293.566406 C 279.792969 307.339844 263.75 318.160156 245.886719 325.710938 C 227.394531 333.535156 207.75 337.5 187.5 337.5 " fill-opacity="1" fill-rule="nonzero"/></g><path fill="#ffcc00" d="M 114.101562 275.253906 C 113.957031 277.203125 113.886719 279.207031 113.886719 281.195312 L 113.882812 283.109375 L 113.882812 318.21875 C 124.996094 324.496094 136.851562 329.308594 149.167969 332.554688 L 149.167969 281.195312 C 149.167969 256.203125 169.5 235.871094 194.492188 235.871094 C 119.726562 235.871094 114.101562 275.253906 114.101562 275.253906 " fill-opacity="1" fill-rule="nonzero"/><path fill="#ff2d59" d="M 194.492188 200.585938 C 173.996094 200.585938 154.460938 208.289062 139.492188 222.265625 C 124.59375 236.179688 115.574219 254.992188 114.101562 275.253906 C 114.101562 275.253906 119.726562 235.871094 194.492188 235.871094 L 223.917969 235.871094 C 243.789062 235.871094 260.066406 220.210938 261.066406 200.585938 L 194.492188 200.585938 " fill-opacity="1" fill-rule="nonzero"/></svg>