<svg xmlns="http://www.w3.org/2000/svg" xmlns:xlink="http://www.w3.org/1999/xlink" width="500" zoomAndPan="magnify" viewBox="0 0 375 374.999991" height="500" preserveAspectRatio="xMidYMid meet" version="1.0"><defs><filter x="0%" y="0%" width="100%" height="100%" id="id1"><feColorMatrix values="0 0 0 0 1 0 0 0 0 1 0 0 0 0 1 0 0 0 1 0" color-interpolation-filters="sRGB"/></filter><g/><mask id="id2"><g filter="url(#id1)"><rect x="-37.5" width="450" fill="#000000" y="-37.499999" height="449.999989" fill-opacity="0.6471"/></g></mask><clipPath id="id3"><path d="M 0.121094 0.320312 L 261 0.320312 L 261 84.800781 L 0.121094 84.800781 Z M 0.121094 0.320312 " clip-rule="nonzero"/></clipPath><clipPath id="id4"><rect x="0" width="261" y="0" height="85"/></clipPath></defs><g mask="url(#id2)"><g transform="matrix(1, 0, 0, 1, 63, 112)"><g clip-path="url(#id4)"><g clip-path="url(#id3)"><path fill="#4c40f7" d="M 234.519531 64.722656 C 234.519531 64.457031 234.570312 64.246094 234.570312 63.925781 L 234.570312 20.839844 C 234.570312 9.605469 225.828125 0.382812 215.125 0.382812 L 19.726562 0.382812 C 9.023438 0.382812 0.230469 9.605469 0.230469 20.839844 L 0.230469 63.925781 C 0.230469 75.160156 8.972656 84.382812 19.671875 84.382812 L 215.074219 84.382812 C 219.789062 84.382812 224.132812 82.582031 227.472656 79.667969 C 232.929688 82.632812 245.960938 88.515625 260.425781 79.878906 C 260.480469 79.878906 247.445312 79.933594 234.519531 64.722656 " fill-opacity="1" fill-rule="nonzero"/></g></g></g></g><g fill="#000000" fill-opacity="1"><g transform="translate(66.872645, 236.132312)"><g><path d="M 7.027344 0.308594 C 10.890625 0.308594 13.46875 -1.960938 13.46875 -5.628906 L 13.46875 -5.964844 C 13.46875 -9.015625 12.066406 -10.527344 7.726562 -12.488281 C 4.339844 -14.082031 3.164062 -15.089844 3.164062 -17.46875 L 3.164062 -17.804688 C 3.164062 -19.851562 4.621094 -21.445312 7.585938 -21.445312 C 9.296875 -21.445312 11.003906 -20.941406 12.375 -20.101562 L 12.851562 -21.613281 C 11.339844 -22.539062 9.378906 -23.042969 7.449219 -23.042969 C 3.667969 -23.042969 1.429688 -20.941406 1.429688 -17.804688 L 1.429688 -17.5 C 1.429688 -14.417969 2.632812 -12.851562 6.636719 -11.058594 C 10.472656 -9.378906 11.703125 -8.289062 11.703125 -5.992188 L 11.703125 -5.65625 C 11.703125 -3.023438 9.828125 -1.289062 6.886719 -1.289062 C 4.957031 -1.289062 3.191406 -1.875 1.792969 -2.941406 L 1.289062 -1.429688 C 2.882812 -0.308594 4.871094 0.308594 7.027344 0.308594 Z M 7.027344 0.308594 "/></g></g></g><g fill="#000000" fill-opacity="1"><g transform="translate(84.202638, 236.132312)"><g><path d="M 7.449219 0.308594 C 11.199219 0.308594 13.578125 -2.15625 13.578125 -6.019531 L 13.578125 -9.378906 C 13.578125 -13.214844 11.199219 -15.707031 7.449219 -15.707031 C 3.667969 -15.707031 1.289062 -13.214844 1.289062 -9.378906 L 1.289062 -6.019531 C 1.289062 -2.15625 3.667969 0.308594 7.449219 0.308594 Z M 7.449219 -1.261719 C 4.648438 -1.261719 3.023438 -3.246094 3.023438 -5.933594 L 3.023438 -9.464844 C 3.023438 -12.152344 4.648438 -14.140625 7.449219 -14.140625 C 10.21875 -14.140625 11.84375 -12.152344 11.84375 -9.464844 L 11.84375 -5.933594 C 11.84375 -3.246094 10.191406 -1.261719 7.449219 -1.261719 Z M 7.449219 -1.261719 "/></g></g></g><g fill="#000000" fill-opacity="1"><g transform="translate(101.588627, 236.132312)"><g><path d="M 4.984375 0 L 4.984375 -13.691406 L 9.714844 -13.691406 L 9.714844 -15.257812 L 4.984375 -15.257812 L 4.984375 -17.804688 C 4.984375 -20.074219 6.1875 -21.136719 8.398438 -21.136719 L 9.742188 -21.136719 L 9.742188 -22.707031 L 8.289062 -22.707031 C 4.925781 -22.707031 3.277344 -20.96875 3.277344 -17.863281 L 3.277344 -15.257812 L 0.699219 -15.257812 L 0.699219 -13.691406 L 3.277344 -13.691406 L 3.277344 0 Z M 4.984375 0 "/></g></g></g><g fill="#000000" fill-opacity="1"><g transform="translate(114.719188, 236.132312)"><g><path d="M 9.742188 0 L 9.742188 -1.625 L 8.34375 -1.625 C 6.046875 -1.625 5.011719 -2.464844 5.011719 -4.789062 L 5.011719 -13.691406 L 9.714844 -13.691406 L 9.714844 -15.257812 L 5.011719 -15.257812 L 5.011719 -20.632812 L 3.277344 -20.632812 L 3.277344 -15.257812 L 0.699219 -15.257812 L 0.699219 -13.691406 L 3.277344 -13.691406 L 3.277344 -4.421875 C 3.277344 -1.289062 4.648438 0 7.894531 0 Z M 9.742188 0 "/></g></g></g><g fill="#000000" fill-opacity="1"><g transform="translate(128.045729, 236.132312)"><g><path d="M 15.285156 -7.980469 C 14.78125 -5.710938 14.277344 -3.414062 13.972656 -1.902344 L 10.667969 -15.257812 L 8.457031 -15.257812 L 6.804688 -8.035156 L 5.375 -1.765625 C 4.925781 -3.722656 4.5625 -5.570312 4.003906 -7.980469 L 2.40625 -15.257812 L 0.53125 -15.257812 L 4.117188 0 L 6.46875 0 L 8.371094 -8.007812 C 8.875 -10.105469 9.238281 -11.730469 9.574219 -13.242188 C 10.023438 -11.507812 10.441406 -9.769531 10.890625 -8.007812 L 12.878906 0 L 15.257812 0 L 18.703125 -15.257812 L 16.828125 -15.257812 Z M 15.285156 -7.980469 "/></g></g></g><g fill="#000000" fill-opacity="1"><g transform="translate(149.799116, 236.132312)"><g><path d="M 6.691406 -15.652344 C 5.207031 -15.652344 3.414062 -15.257812 2.210938 -14.671875 L 1.875 -12.960938 C 3.277344 -13.664062 4.984375 -14.082031 6.355469 -14.082031 C 9.128906 -14.082031 10.273438 -12.824219 10.273438 -10.441406 L 10.273438 -8.929688 C 8.875 -9.210938 7.699219 -9.324219 6.777344 -9.324219 C 3.078125 -9.324219 0.980469 -7.785156 0.980469 -4.648438 L 0.980469 -4.453125 C 0.980469 -1.203125 3.109375 0.335938 6.886719 0.335938 C 8.34375 0.335938 10.332031 0.0546875 11.984375 -0.335938 L 11.984375 -10.554688 C 11.984375 -14.222656 9.996094 -15.652344 6.691406 -15.652344 Z M 2.714844 -4.589844 C 2.714844 -6.777344 4.199219 -7.8125 7.027344 -7.8125 C 7.839844 -7.8125 9.128906 -7.699219 10.273438 -7.417969 L 10.273438 -1.566406 C 9.15625 -1.34375 7.867188 -1.230469 6.972656 -1.230469 C 4.171875 -1.230469 2.714844 -2.324219 2.714844 -4.507812 Z M 2.714844 -4.589844 "/></g></g></g><g fill="#000000" fill-opacity="1"><g transform="translate(165.841282, 236.132312)"><g><path d="M 3.5 0 L 3.5 -13.296875 C 4.253906 -13.636719 5.683594 -13.804688 6.71875 -13.804688 L 8.59375 -13.804688 L 8.59375 -15.398438 L 6.496094 -15.398438 C 5.207031 -15.398438 3.21875 -15.175781 1.765625 -14.671875 L 1.765625 0 Z M 3.5 0 "/></g></g></g><g fill="#000000" fill-opacity="1"><g transform="translate(177.768017, 236.132312)"><g><path d="M 12.792969 -9.296875 C 12.792969 -13.355469 10.75 -15.707031 7.054688 -15.707031 C 3.414062 -15.707031 1.289062 -13.328125 1.289062 -9.378906 L 1.289062 -6.269531 C 1.289062 -2.324219 3.359375 0.308594 7.558594 0.308594 C 9.492188 0.308594 11.199219 -0.335938 12.347656 -1.203125 L 11.84375 -2.632812 C 10.835938 -1.847656 9.351562 -1.261719 7.699219 -1.261719 C 4.730469 -1.261719 3.023438 -3.109375 3.023438 -6.300781 L 3.023438 -7.25 L 12.792969 -7.25 Z M 7.054688 -14.140625 C 9.96875 -14.140625 11.113281 -12.09375 11.113281 -9.632812 L 11.113281 -8.792969 L 3.023438 -8.792969 L 3.023438 -9.464844 C 3.023438 -12.039062 4.285156 -14.140625 7.054688 -14.140625 Z M 7.054688 -14.140625 "/></g></g></g><g fill="#000000" fill-opacity="1"><g transform="translate(194.398101, 236.132312)"><g/></g></g><g fill="#000000" fill-opacity="1"><g transform="translate(201.733454, 236.132312)"><g><path d="M 7.054688 0 C 12.824219 0 15.621094 -3.246094 15.621094 -8.707031 L 15.621094 -14.054688 C 15.621094 -19.402344 12.824219 -22.707031 7.027344 -22.707031 L 1.707031 -22.707031 L 1.707031 0 Z M 3.445312 -21.082031 L 7 -21.082031 C 11.226562 -21.082031 13.859375 -18.8125 13.859375 -14.109375 L 13.859375 -8.652344 C 13.859375 -3.917969 11.226562 -1.625 7 -1.625 L 3.445312 -1.625 Z M 3.445312 -21.082031 "/></g></g></g><g fill="#000000" fill-opacity="1"><g transform="translate(221.079175, 236.132312)"><g><path d="M 12.792969 -9.296875 C 12.792969 -13.355469 10.75 -15.707031 7.054688 -15.707031 C 3.414062 -15.707031 1.289062 -13.328125 1.289062 -9.378906 L 1.289062 -6.269531 C 1.289062 -2.324219 3.359375 0.308594 7.558594 0.308594 C 9.492188 0.308594 11.199219 -0.335938 12.347656 -1.203125 L 11.84375 -2.632812 C 10.835938 -1.847656 9.351562 -1.261719 7.699219 -1.261719 C 4.730469 -1.261719 3.023438 -3.109375 3.023438 -6.300781 L 3.023438 -7.25 L 12.792969 -7.25 Z M 7.054688 -14.140625 C 9.96875 -14.140625 11.113281 -12.09375 11.113281 -9.632812 L 11.113281 -8.792969 L 3.023438 -8.792969 L 3.023438 -9.464844 C 3.023438 -12.039062 4.285156 -14.140625 7.054688 -14.140625 Z M 7.054688 -14.140625 "/></g></g></g><g fill="#000000" fill-opacity="1"><g transform="translate(237.709259, 236.132312)"><g><path d="M 6.550781 -1.230469 L 2.183594 -15.257812 L 0.308594 -15.257812 L 5.261719 0 L 7.839844 0 L 12.710938 -15.257812 L 10.863281 -15.257812 Z M 6.550781 -1.230469 "/></g></g></g><g fill="#000000" fill-opacity="1"><g transform="translate(253.275488, 236.132312)"><g><path d="M 12.792969 -9.296875 C 12.792969 -13.355469 10.75 -15.707031 7.054688 -15.707031 C 3.414062 -15.707031 1.289062 -13.328125 1.289062 -9.378906 L 1.289062 -6.269531 C 1.289062 -2.324219 3.359375 0.308594 7.558594 0.308594 C 9.492188 0.308594 11.199219 -0.335938 12.347656 -1.203125 L 11.84375 -2.632812 C 10.835938 -1.847656 9.351562 -1.261719 7.699219 -1.261719 C 4.730469 -1.261719 3.023438 -3.109375 3.023438 -6.300781 L 3.023438 -7.25 L 12.792969 -7.25 Z M 7.054688 -14.140625 C 9.96875 -14.140625 11.113281 -12.09375 11.113281 -9.632812 L 11.113281 -8.792969 L 3.023438 -8.792969 L 3.023438 -9.464844 C 3.023438 -12.039062 4.285156 -14.140625 7.054688 -14.140625 Z M 7.054688 -14.140625 "/></g></g></g><g fill="#000000" fill-opacity="1"><g transform="translate(269.905561, 236.132312)"><g><path d="M 3.5 0 L 3.5 -22.707031 L 1.765625 -22.707031 L 1.765625 0 Z M 3.5 0 "/></g></g></g><g fill="#000000" fill-opacity="1"><g transform="translate(277.688847, 236.132312)"><g><path d="M 7.449219 0.308594 C 11.199219 0.308594 13.578125 -2.15625 13.578125 -6.019531 L 13.578125 -9.378906 C 13.578125 -13.214844 11.199219 -15.707031 7.449219 -15.707031 C 3.667969 -15.707031 1.289062 -13.214844 1.289062 -9.378906 L 1.289062 -6.019531 C 1.289062 -2.15625 3.667969 0.308594 7.449219 0.308594 Z M 7.449219 -1.261719 C 4.648438 -1.261719 3.023438 -3.246094 3.023438 -5.933594 L 3.023438 -9.464844 C 3.023438 -12.152344 4.648438 -14.140625 7.449219 -14.140625 C 10.21875 -14.140625 11.84375 -12.152344 11.84375 -9.464844 L 11.84375 -5.933594 C 11.84375 -3.246094 10.191406 -1.261719 7.449219 -1.261719 Z M 7.449219 -1.261719 "/></g></g></g><g fill="#000000" fill-opacity="1"><g transform="translate(295.074825, 236.132312)"><g><path d="M 3.5 6.160156 L 3.5 -0.308594 C 4.675781 0.0273438 5.878906 0.28125 7 0.28125 C 10.945312 0.28125 13.074219 -2.210938 13.074219 -6.019531 L 13.074219 -9.378906 C 13.074219 -13.214844 10.890625 -15.707031 6.972656 -15.707031 C 5.125 -15.707031 3.386719 -15.34375 1.765625 -14.839844 L 1.765625 6.160156 Z M 6.914062 -1.289062 C 5.796875 -1.289062 4.589844 -1.566406 3.5 -1.902344 L 3.5 -13.691406 C 4.5625 -13.941406 5.683594 -14.140625 6.914062 -14.140625 C 9.910156 -14.140625 11.339844 -12.152344 11.339844 -9.464844 L 11.339844 -5.964844 C 11.339844 -3.277344 9.910156 -1.289062 6.914062 -1.289062 Z M 6.914062 -1.289062 "/></g></g></g><g fill="#000000" fill-opacity="1"><g transform="translate(311.956873, 236.132312)"><g><path d="M 12.792969 -9.296875 C 12.792969 -13.355469 10.75 -15.707031 7.054688 -15.707031 C 3.414062 -15.707031 1.289062 -13.328125 1.289062 -9.378906 L 1.289062 -6.269531 C 1.289062 -2.324219 3.359375 0.308594 7.558594 0.308594 C 9.492188 0.308594 11.199219 -0.335938 12.347656 -1.203125 L 11.84375 -2.632812 C 10.835938 -1.847656 9.351562 -1.261719 7.699219 -1.261719 C 4.730469 -1.261719 3.023438 -3.109375 3.023438 -6.300781 L 3.023438 -7.25 L 12.792969 -7.25 Z M 7.054688 -14.140625 C 9.96875 -14.140625 11.113281 -12.09375 11.113281 -9.632812 L 11.113281 -8.792969 L 3.023438 -8.792969 L 3.023438 -9.464844 C 3.023438 -12.039062 4.285156 -14.140625 7.054688 -14.140625 Z M 7.054688 -14.140625 "/></g></g></g><g fill="#000000" fill-opacity="1"><g transform="translate(328.586968, 236.132312)"><g><path d="M 3.5 0 L 3.5 -13.296875 C 4.253906 -13.636719 5.683594 -13.804688 6.71875 -13.804688 L 8.59375 -13.804688 L 8.59375 -15.398438 L 6.496094 -15.398438 C 5.207031 -15.398438 3.21875 -15.175781 1.765625 -14.671875 L 1.765625 0 Z M 3.5 0 "/></g></g></g><g fill="#ffffff" fill-opacity="1"><g transform="translate(66.872645, 187.704993)"><g><path d="M 11.578125 0 L 11.578125 -28.601562 L 25.839844 -28.601562 L 25.839844 -35.65625 L 11.578125 -35.65625 L 11.578125 -55.210938 L 28.679688 -55.210938 L 28.679688 -62.1875 L 4.0625 -62.1875 L 4.0625 0 Z M 11.578125 0 "/></g></g></g><g fill="#ffffff" fill-opacity="1"><g transform="translate(97.542958, 187.704993)"><g><path d="M 11.730469 0 L 11.730469 -35.425781 C 13.417969 -36.269531 15.949219 -36.5 17.558594 -36.5 L 22.699219 -36.5 L 22.699219 -43.09375 L 17.558594 -43.09375 C 13.265625 -43.09375 7.285156 -42.25 4.21875 -41.023438 L 4.21875 0 Z M 11.730469 0 "/></g></g></g><g fill="#ffffff" fill-opacity="1"><g transform="translate(121.389124, 187.704993)"><g><path d="M 14.1875 -44.015625 C 11.117188 -44.015625 6.746094 -43.09375 4.832031 -42.019531 L 2.914062 -34.8125 C 6.058594 -36.347656 9.890625 -37.113281 12.5 -37.113281 C 18.171875 -37.113281 20.089844 -34.582031 20.089844 -29.597656 L 20.089844 -26.148438 C 17.941406 -26.609375 16.484375 -26.683594 15.488281 -26.683594 C 6.746094 -26.683594 1.917969 -22.46875 1.917969 -13.648438 L 1.917969 -12.574219 C 1.917969 -3.757812 6.746094 0.765625 15.105469 0.765625 C 19.171875 0.765625 23.464844 -0.152344 27.605469 -1.304688 L 27.605469 -30.59375 C 27.605469 -39.875 23.3125 -44.015625 14.1875 -44.015625 Z M 9.125 -13.496094 C 9.125 -18.554688 11.273438 -21.085938 15.871094 -21.085938 C 17.023438 -21.085938 18.632812 -20.933594 20.089844 -20.398438 L 20.089844 -5.519531 C 18.554688 -5.367188 17.101562 -5.289062 15.796875 -5.289062 C 11.273438 -5.289062 9.125 -8.050781 9.125 -13.265625 Z M 9.125 -13.496094 "/></g></g></g><g fill="#ffffff" fill-opacity="1"><g transform="translate(152.212788, 187.704993)"><g><path d="M 11.425781 0 L 11.425781 -36.421875 C 13.113281 -37.113281 15.027344 -37.496094 16.640625 -37.496094 C 20.167969 -37.496094 22.390625 -36.191406 22.390625 -32.359375 L 22.390625 0 L 29.90625 0 L 29.90625 -32.28125 C 29.90625 -39.949219 26.300781 -44.089844 17.253906 -44.089844 C 13.417969 -44.089844 8.433594 -43.324219 4.21875 -41.789062 L 4.21875 0 Z M 11.425781 0 "/></g></g></g><g fill="#ffffff" fill-opacity="1"><g transform="translate(185.030012, 187.704993)"><g><path d="M 16.257812 0.765625 C 19.398438 0.765625 22.621094 0.078125 25.609375 -1.148438 L 24.84375 -7.746094 C 22.46875 -6.519531 19.9375 -6.058594 17.558594 -6.058594 C 12.34375 -6.058594 10.582031 -9.046875 10.582031 -13.800781 L 10.582031 -29.597656 C 10.582031 -34.046875 12.117188 -37.265625 17.636719 -37.265625 C 20.242188 -37.265625 22.007812 -36.804688 24.613281 -35.578125 L 25.382812 -42.097656 C 22.238281 -43.402344 19.398438 -44.015625 16.179688 -44.015625 C 7.820312 -44.015625 3.066406 -39.796875 3.066406 -30.289062 L 3.066406 -13.113281 C 3.066406 -3.21875 8.128906 0.765625 16.257812 0.765625 Z M 16.257812 0.765625 "/></g></g></g><g fill="#ffffff" fill-opacity="1"><g transform="translate(212.633286, 187.704993)"><g><path d="M 16.101562 0.765625 C 25.609375 0.765625 29.0625 -4.21875 29.0625 -13.1875 L 29.0625 -30.210938 C 29.0625 -39.105469 25.535156 -44.089844 16.101562 -44.089844 C 6.59375 -44.089844 3.066406 -39.105469 3.066406 -30.210938 L 3.066406 -13.1875 C 3.066406 -4.21875 6.59375 0.765625 16.101562 0.765625 Z M 16.101562 -5.90625 C 12.039062 -5.90625 10.582031 -8.433594 10.582031 -12.269531 L 10.582031 -31.054688 C 10.582031 -34.964844 12.039062 -37.496094 16.101562 -37.496094 C 20.089844 -37.496094 21.546875 -35.042969 21.546875 -31.054688 L 21.546875 -12.269531 C 21.546875 -8.359375 20.089844 -5.90625 16.101562 -5.90625 Z M 16.101562 -5.90625 "/></g></g></g></svg>